#!OML:ASF F:\VICON\USERDATA\INSTALL\rory3\rory3.ASF
:FULLY-SPECIFIED
:DEGREES
159
root 6.54339 16.9341 6.81336 157.096 -102.352 -154.581
lowerback 39.1382 2.6886 4.09558
upperback 8.5424 4.8027 7.54888
thorax -9.94634 1.62098 4.0681
lowerneck -12.9362 -3.12041 -3.49279
upperneck -5.76378 -4.15178 -6.55756
head 0.261773 -2.28006 -1.64148
rclavicle 1.27222e-014 -1.59028e-014
rhumerus -3.74787 -3.38954 -71.7343
rradius 43.3173
rwrist 13.5973
rhand -19.0788 8.88862
rfingers 7.12502
rthumb 7.22908 -20.9679
lclavicle 1.27222e-014 -1.59028e-014
lhumerus -42.0415 4.31304 89.9676
lradius 52.9466
lwrist -3.54683
lhand -13.8988 45.5179
lfingers 7.12502
lthumb 12.2267 75.1405
rfemur -20.4146 5.95062 1.71272
rtibia 51.2741
rfoot -22.1933 -17.686
rtoes -26.7954
lfemur -23.3472 -8.66559 5.05724
ltibia 38.5772
lfoot 10.6469 1.03217
ltoes -27.2936
160
root 6.57855 16.9203 7.10795 156.646 -102.366 -153.915
lowerback 38.9722 2.54587 4.25791
upperback 8.51868 4.68488 7.57433
thorax -9.89789 1.56795 4.06283
lowerneck -12.824 -3.15512 -3.92135
upperneck -6.25882 -4.19154 -6.22742
head 0.0952393 -2.27534 -1.45421
rclavicle 9.54166e-015 9.54166e-015
rhumerus -2.77283 -7.49946 -71.6885
rradius 40.1032
rwrist 11.1044
rhand -19.0681 8.89887
rfingers 7.12502
rthumb 7.23941 -20.9573
lclavicle 9.54166e-015 9.54166e-015
lhumerus -42.0846 4.45306 90.2811
lradius 53.071
lwrist -3.2548
lhand -14.34 45.8799
lfingers 7.12502
lthumb 11.8013 75.5274
rfemur -20.0785 6.01399 0.467971
rtibia 50.3928
rfoot -21.5525 -17.8739
rtoes -27.8977
lfemur -23.3865 -9.01382 4.49426
ltibia 38.9473
lfoot 10.219 -0.317951
ltoes -31.3199
161
root 6.60393 16.9037 7.3922 155.807 -102.24 -152.862
lowerback 38.7533 2.75713 3.82192
upperback 8.57637 4.78324 7.77938
thorax -9.83206 1.6215 4.47268
lowerneck -13.0055 -3.09351 -3.63666
upperneck -6.56994 -4.18322 -6.54344
head 0.0148919 -2.2822 -1.60324
rclavicle 2.70347e-014 -1.59028e-014
rhumerus -1.92573 -10.5323 -71.745
rradius 37.695
rwrist 5.58292
rhand -21.2545 6.85852
rfingers 7.12502
rthumb 5.12863 -23.0594
lclavicle 2.70347e-014 -1.59028e-014
lhumerus -42.1371 4.57025 90.6487
lradius 53.224
lwrist -2.97404
lhand -15.9166 46.0272
lfingers 7.12502
lthumb 10.2806 75.7559
rfemur -19.7366 6.35512 -0.698677
rtibia 49.4536
rfoot -20.5356 -18.4446
rtoes -29.7959
lfemur -23.2352 -9.05266 3.79848
ltibia 39.4047
lfoot 9.10411 -0.469748
ltoes -35.9167
162
root 6.63473 16.8822 7.70314 156.004 -102.388 -152.829
lowerback 38.4589 2.53694 4.19791
upperback 8.56125 4.62719 7.64398
thorax -9.68638 1.55425 4.19911
lowerneck -13.3792 -3.07696 -4.3548
upperneck -6.26899 -3.97566 -5.49131
head 0.204401 -2.15822 -1.15224
rclavicle 1.74931e-014 -2.54444e-014
rhumerus -0.946655 -16.1469 -72.1842
rradius 35.1211
rwrist 4.46607
rhand -21.5015 6.43892
rfingers 7.12502
rthumb 4.8901 -23.4846
lclavicle 1.74931e-014 -2.54444e-014
lhumerus -42.0383 4.27768 90.6036
lradius 53.1937
lwrist -2.6731
lhand -18.9661 46.1097
lfingers 7.12502
lthumb 7.33787 75.9625
rfemur -19.2292 6.71839 -1.97246
rtibia 48.4617
rfoot -20.5544 -17.9758
rtoes -27.5414
lfemur -23.2986 -8.86469 2.97401
ltibia 39.9881
lfoot 6.07555 0.123603
ltoes -42.2625
163
root 6.66401 16.8615 8.02121 155.153 -102.558 -151.71
lowerback 38.1875 2.44117 4.32786
upperback 8.47919 4.55868 7.60106
thorax -9.66475 1.53172 4.11541
lowerneck -13.2922 -3.11307 -4.76999
upperneck -6.42438 -3.97057 -4.99639
head 0.154984 -2.13341 -0.923668
rclavicle 6.04305e-014 1.24042e-013
rhumerus -0.390098 -21.1806 -72.0253
rradius 33.2197
rwrist 2.90427
rhand -22.7707 5.84799
rfingers 7.12502
rthumb 3.6645 -24.1002
lclavicle 6.04305e-014 1.24042e-013
lhumerus -42.0561 3.70469 90.8194
lradius 53.2248
lwrist -1.85408
lhand -15.656 46.307
lfingers 7.12502
lthumb 10.532 76.0231
rfemur -18.7318 7.41064 -3.57672
rtibia 47.4509
rfoot -21.0022 -17.0756
rtoes -22.9273
lfemur -23.3031 -8.30763 1.70699
ltibia 40.5776
lfoot 3.19646 0.315593
ltoes -45.0854
164
root 6.68721 16.8469 8.32735 153.999 -102.541 -150.374
lowerback 38.0019 2.5726 4.15691
upperback 8.38556 4.68675 7.74929
thorax -9.74806 1.59885 4.31274
lowerneck -13.2893 -3.14453 -4.75576
upperneck -6.41673 -4.02648 -5.28
head 0.151013 -2.16864 -1.0174
rclavicle -1.59028e-015 3.81667e-014
rhumerus -0.170351 -25.7634 -71.4034
rradius 31.9153
rwrist 1.34558
rhand -23.8757 5.12665
rfingers 7.12502
rthumb 2.59736 -24.8373
lclavicle -1.59028e-015 3.81667e-014
lhumerus -42.2067 2.89388 91.3106
lradius 53.3045
lwrist -0.343363
lhand -15.2132 46.5544
lfingers 7.12502
lthumb 10.9591 76.2484
rfemur -18.1993 8.3294 -4.97296
rtibia 46.4056
rfoot -20.4718 -17.0445
rtoes -21.0056
lfemur -23.2772 -7.29582 0.443646
ltibia 41.2803
lfoot 0.272084 -0.327181
ltoes -45.2585
165
root 6.70239 16.8405 8.6247 152.676 -102.233 -149.042
lowerback 38.0387 2.871 3.93392
upperback 8.26031 5.02293 7.93165
thorax -9.9684 1.75629 4.4852
lowerneck -12.6688 -3.27393 -5.04009
upperneck -6.80654 -4.23284 -5.15051
head -0.0685231 -2.24302 -0.919277
rclavicle -9.54166e-015 -6.36111e-014
rhumerus -0.283074 -30.442 -70.6059
rradius 31.1298
rwrist 0.262114
rhand -24.1692 4.79063
rfingers 7.12502
rthumb 2.31392 -25.1766
lclavicle -9.54166e-015 -6.36111e-014
lhumerus -42.5656 2.52641 91.6679
lradius 53.3662
lwrist 0.659127
lhand -14.9281 46.8198
lfingers 7.12502
lthumb 11.2341 76.499
rfemur -17.6335 9.62411 -6.06786
rtibia 45.3679
rfoot -19.0393 -17.7535
rtoes -22.2561
lfemur -23.0578 -5.66263 -0.726804
ltibia 42.0369
lfoot -2.43123 -1.27449
ltoes -44.5737
166
root 6.72925 16.834 8.95897 153.721 -102.366 -149.841
lowerback 37.6785 2.80163 4.36672
upperback 8.07286 5.14686 8.19695
thorax -10.0522 1.81435 4.49999
lowerneck -12.0979 -3.41871 -5.49662
upperneck -7.1054 -4.43206 -5.01563
head -0.245455 -2.31352 -0.794113
rclavicle -1.59028e-015 -1.90833e-014
rhumerus -0.697624 -34.3761 -69.2162
rradius 30.9062
rwrist -1.28416
rhand -24.4696 4.65132
rfingers 7.12502
rthumb 2.02381 -25.3188
lclavicle -1.59028e-015 -1.90833e-014
lhumerus -42.9709 2.66707 92.145
lradius 53.4504
lwrist 1.07105
lhand -13.7277 46.7703
lfingers 7.12502
lthumb 12.3917 76.383
rfemur -17.075 10.5857 -7.11208
rtibia 44.3699
rfoot -17.7516 -18.2201
rtoes -22.1656
lfemur -23.699 -4.37776 -1.87918
ltibia 43.0288
lfoot -4.7625 -1.76243
ltoes -44.3167
167
root 6.75854 16.823 9.28929 154.883 -102.357 -150.889
lowerback 37.4428 2.40565 5.23523
upperback 7.99441 4.94003 7.91146
thorax -9.91879 1.71207 3.8291
lowerneck -12.2897 -3.38123 -5.01964
upperneck -6.99987 -4.41198 -5.02258
head -0.188973 -2.31786 -0.878183
rclavicle 3.49861e-014 6.67916e-014
rhumerus -1.03407 -37.5831 -68.7482
rradius 31.2191
rwrist -3.4243
rhand -24.8066 4.92459
rfingers 7.12502
rthumb 1.69838 -25.0484
lclavicle 3.49861e-014 6.67916e-014
lhumerus -43.0757 2.0487 91.8485
lradius 53.4538
lwrist 2.03968
lhand -13.3991 46.7828
lfingers 7.12502
lthumb 12.7085 76.3761
rfemur -16.4707 12.2641 -8.05843
rtibia 43.5014
rfoot -17.7872 -18.0231
rtoes -14.6059
lfemur -24.2629 -2.76802 -3.08592
ltibia 44.1826
lfoot -6.97946 -1.80148
ltoes -44.7928
